/* XPM */
static char *LPCXpresso_64x64[] = {
/* columns rows colors chars-per-pixel */
"64 64 74 1 ",
"  c #0C3789",
". c #0E388A",
"X c #143D8D",
"o c #183F8E",
"O c #19408F",
"+ c #1D4491",
"@ c #214693",
"# c #264994",
"$ c #294C96",
"% c #2E4E98",
"& c #2E539A",
"* c #33539B",
"= c #39569D",
"- c #35599D",
"; c #3A5A9E",
": c #3D5CA0",
"> c #3F60A2",
", c #445DA2",
"< c #4362A3",
"1 c #4A62A5",
"2 c #4E6CA9",
"3 c #5066A7",
"4 c #5267A8",
"5 c #5569A9",
"6 c #5B6DAC",
"7 c #5673AD",
"8 c #5C74AE",
"9 c #6272AF",
"0 c #6574B0",
"q c #6977B2",
"w c #647CB2",
"e c #6D7AB4",
"r c #747EB7",
"t c #757FB8",
"y c #6A82B6",
"u c #6D84B8",
"i c #7680B8",
"p c #7E86BC",
"a c #758BBB",
"s c #7F92C0",
"d c #8087BD",
"f c #8088BD",
"g c #8197C2",
"h c #869BC5",
"j c #889DC5",
"k c #8CA0C7",
"l c #93A4CA",
"z c #98A7CC",
"x c #97A9CD",
"c c #99A9CD",
"v c #A1AFD1",
"b c #A4B1D2",
"n c #A9B6D5",
"m c #ACB9D7",
"M c #B1BCD9",
"N c #BBC6DD",
"B c #BDC8DF",
"V c #C4CBE1",
"C c #C7D0E3",
"Z c #CCD2E5",
"A c #CFD7E8",
"S c #D2D4E8",
"D c #D5DBEA",
"F c #DADFEC",
"G c #DEE3EF",
"H c #DFE5F0",
"J c #E2E7F1",
"K c #E5EAF2",
"L c #ECEEF5",
"P c #EFF1F7",
"I c #F3F4F9",
"U c #F7F8FB",
"Y c #FFFFFF",
"T c None",
/* pixels */
"TTTTTTTTTTTTTTTTTTTTTTTTTTTTTTTTTTTTTTTTTTTTTTTTTTTTTTTTTTTTTTTT",
"TTTTTTT@+OXX+XX+ooOOOO+XOOOOOOOOOOXO+XX+ooOoOOoX+oX+oo+o@TTTTTTT",
"TTTTT@OXXXXXXXXXXXXXXXXXXXXXXXXXXXXXXXXXXXXXXXXXXXXXXXXXXX@TTTTT",
"TTTT+XXXXXXXXXXXXXXXXXXXXXXXXXXXXXXXXXXXXXXXXXXXXXXXXXXXXXX+TTTT",
"TTTOXXXX@##@@@#######@#OXXXXXXXXXXXXXXXXXX+####@@@###@XXXXXXOTTT",
"TT+XXXX+qttrttttrrrrpii9+XXXXXXXXXXXXXXXX%rrttttttttp,XXXXXXX+TT",
"TTXXXXX+rdpdppdddppppppp5XXXXXXXXXXXXXXX+qdddddpdddd9+XXXXXXXXTT",
"T+XXXXX+qddpdddpppppppppp,XXXXXXXXXXXXX+6dpppdpppppq@XXXXXXXXX+T",
"TXXXXXXO6rrqqrrpppppppppdi*XXXXXXXXXXXo1ppppppppppi*XXXXXXXXXXXT",
"TOXXXXXXOO+O++#qpppppppppdq@XXXXXXXXXX:tdppppppppp,XXXXXXXXXXXXT",
"OOXXXXXXXXXXXXX*rpppppppppp6OXXXXXXXX$rppppppppdp4OXXXXXXXXXXXX+",
"OXXXXXXXoXXXXXXX,ppppppppppp1XXXXXXX@0pppppppppd9+XXXXXXXXXXXXO#",
"OXXXXXXXXXXXXXXXO3dpppppppppp*XXXXXo6ppppppppppq$XXXXXXXXXXXXXX#",
"OoXXXXXXXXXXXXXXX+9ppppppppppr#XXXX1ppppppppppp=OXXXXXXXXXXXXXO$",
"OXXXXXXXXXXXXXXXXX#qdppppppppd9O.X=ppppppppppp,XXXXXXXXXXXXXXXX$",
"OXXXXXXXXXXXXXXXXXX*ipppppppppd3X$qfppppppppp6+XXXXXXXXXXXXXXXX$",
"OXXXXXXXXXXXXXXXXXXX,ppppppppppp,qdppppppptdq+XXXXXXXXXXXXXXXXX$",
"OXXXXXXXXXXXXXXXXXXXO4ppppppppppppppppppppgr%XXXXXXXXXXXXXXXXXX$",
"OXXXXXXXXXXXXXXXXXXXX+9fppppppppppppppppppt,XXXXXXXXXXXXXXXXXXX$",
"OOXXXXXXXXXXXXXXXXXXXO#qdppppppppppppppppp4oXXXXXXXXXXXXXXXXXXX$",
"OXXXXXXXXXXXXXXXXXXXXXX*ipppppppppppppppp9OoXXXXXXXXXXXX.OO.XXX$",
"OXXXXXXXXXXXXXXXXXXXXXXX,ppppppppppppppdq#.oXXXXXXXXXXXXOO.OXX.$",
"OoXXXXXXXXXXXXXXXXXXXXXXO6dpppppppppppdt*.oXXXXXXXXXXXXO.O.O.OO$",
"OXXXXXXXXXXXXXXXXXXXXXXXX+9pppppppppddt,oXXXXXXXXXXXXXXXO.O.OO.$",
"OXXXXXXXXXXXXXXXXXXXXXXXXX*dppppppppppq+XXXXXXXXO  OOOO O.O.OOO+",
"OoXXXXXXXXXXXXXXXXXXXXXXXO6dppppppppppd,XXXXXXXXOOOO  OO.O OO O#",
"OXXXXXXXXXXXXXXXXXXXXXXXo1ddppppppppppdt=XXXXXXX OO OO OOO.O OO#",
"OXXXXXXXXXXXXXXXXXXXXXXX,ppdpppppppppppgr#XXXXXX O OO OO.OO.OOO#",
"OoXXXXXXXXXXXXXXXXXXXXX*rpppppppppppppppd9+XOO OOO O OO O  OOO +",
"OXXXXXXXXXXXXXXXXXXXXX+qppppppppppppppppdd4o  OOO  OOO OOOOO OO#",
"OXXXXXXXXXXXXXXXXXXXXO6dppppppppppppppppsts>OOO O OOO O  OO OOO#",
"OXXXXXOXXXXXXXXXXXXXO1dppppppppppppppppptsiu$ O OOO O OOO O OOO#",
"OXXXXXXXXXXXXXXXXXXX=ppppppppppp16ddppppppppq$XXXXXXo.oo.O.O.OO+",
"OXXXXXXXXXXXXXXXXXX#rdppppppppp4o#qdppppppppp6+XXXXX.o.OO.OOO.O$",
"OXXXXXXXXXXXXXXXXX@qpppppppppp0@.o*tdppppppppp1XXXXX.oo...O..OO+",
"OXXXXXXXXXXXXXXXXo4ppppppppppr#Xo..,ppppppppppp*XXXXo.ooOO.OOOO$",
"OXXXXXXXXXXXXXXXX,ddppppppppp*XXoo.o4ppppppppppt#XXXXXo. OOO. O+",
"OXXXXXXXXXXXXXXX=tddpppppppp1XXX..oo+9pppppppppp0+XXXXooOO  OOO$",
"OXXXXXXXXXXXXXX#rpppppppppp4oXXXoX.oo%edppppppppp4ooXoXo OOO OO+",
"OXXXXXXXXXXXXX+9pppppppppd0@XXXXXXoo..*ppppppppppp,oo+ooOO OOOO$",
"OOXXXXXXXXXXX+4ppppppppppr#XXXXXXXXXXXX,dppppppppdtqqqqqw>XXXXX#",
"OXXXXXXXXXXXX,ppppppppppp=XXXXXXXXXXXXXo6ppppppppdddpfppg2XoXXo#",
"OXOXXoOXoXXX*idpppppppdp1OXXXXoXoooooXXX@qddpdfppdpppgpfg5ooXXX#",
"@*vmmmmmmmmmVSSSSSSSSSSZMmmmmmmmnmnnmmmmmNSSSSSSSSSSSSSSSNnmmn,@",
"T<LYYYYYYYYYYYYYYYYYYYYYYYYYYYYYYYYYYYYYYYYYYYYYYYYYYYYYYYYYYY5+",
"T<PYYYYYYYYYYYYYYYYYYYYYYYYYYYYYYYYYYYYYYYYYYYYYYYYYYYYYYYYYYY7+",
"T<PYYYYYYYYYYYYYYYYYYYYYYYYYYYYYYYYYYYYYYYYYYYYYYYYYYYYYYYYYYY7+",
"T<LYYYYYYYYYYYYYYYYYCNGYYDNBBBZKYYYYYYZNNBNBNDYYYYYYYYYYYYYYYU7+",
"T<LYYYYYYYYYYYYYYYYL;XkYYwXoOO+-aDYYYU8XOOOOXwYYYYYYYYYYYYYYYY5+",
"T<LYYYYYYYYYYYYYYYYL;.jYYw.+&&+XX;VYYY7.+&&*$aYYYYYYYYYYYYYYYY7+",
"T<PYYYYYYYYYYYYYYYYL;.jYYw 2GHAp+.2LYY7.7KKKKPYYYYYYYYYYYYYYYY7+",
"T<LYYYYYYYYYYYYYYYYK;.jYYw.7YYYYjOONYU7.7JKKKIYYYYYYYYYYYYYYYU7+",
"T<LYYYYYYYYYYYYYYYYL; jYYw 7YYYYD$.zYY7.+&&&&bYYYYYYYYYYYYYYYY7+",
"T<LYYYYYYYYYYYYYYYYL;XjYUw.7UYYYH&.jYU7.XOOOXzYYYYYYYYYYYYYYYU2+",
"T:LYYYYYYYYYYYYYYYYL; jYYw 7YYYYN+XbYU7.1NBBNJYYYYYYYYYYYYYYYI<O",
"T#DYYYYYYYYYYYYYYYYL;.jYY8 7UYYD2X&GYY7.wYYYYYYYYYYYYYYYYYYYYH&T",
"T+xYYYYYYYYYYYYYYYYL; kYYw -ggy* XzYYU7 :gkjjcIYYYYYYYYYYYYYYm+T",
"T+<LYYYYYYYYYYYYYYYL* gYUw  X  X$zIYYY7   .  $JYYYYYYYYYYYYYI7+T",
"TT+zYYYYYYYYYYYYYYYPa7nYYk7777wzFYYYYYg777777yKYYYYYYYYYYYYYv+TT",
"TTT#MYYYYYYYYYYYYYYYYUYYYYYUYYYYYYYYYYYYYUYYYYYYYYYYYYYYYYYB*+TT",
"TTT+$bYYYYYYYYYYYYYYYYYYYYYYYYYYYYYYYYYYYYYYYYYYYYYYYYYYYUm*OTTT",
"TTTT+@wNPYYYYYYYYYYYYYYYYYYYYYYYYYYYYYYYYYYYYYYYYYYYYYYIVy$+TTTT",
"TTTTTTX$<ysgjjjjkgjjjjgkgkgjkjjjjjkgjjgjkjjjjjkjjjjjkgu1$OTTTTTT",
"TTTTTTTT@O+$++++++++++++$++@++++++++++@+++++++++++++++O+TTTTTTTT"
};
